<svg viewBox="0 0 48 48" xmlns="http://www.w3.org/2000/svg">
    <path d="M45 48L39.7184 43.4526L36.7414 40.7495L33.5937 37.8947L34.8869 42.3385H7.03588C4.24668 42.3288 1.99288 40.1138 2.00002 37.3895L2.00002 4.944C1.99574 2.22162 4.2487 0.0097494 7.03588 0L39.9641 0C42.7513 0.0097494 45.0043 2.22162 45 4.944V48ZM33.2962 26.5465C32.2056 27.9752 30.6355 28.9839 28.8605 29.3962C29.5898 30.3057 30.4692 31.3339 30.477 31.344C33.444 31.4053 36.2532 30.0422 37.9958 27.696C37.9066 22.8321 36.6973 18.0503 34.4576 13.7053C32.4857 12.1939 30.0855 11.3119 27.5827 11.1789H27.5543L27.2103 11.5629C29.4458 12.1494 31.5305 13.1874 33.3299 14.6097C31.0404 13.3804 28.528 12.5979 25.9326 12.3057C24.283 12.1267 22.6174 12.1428 20.9717 12.3537C20.8554 12.3559 20.7395 12.3678 20.6252 12.3891H20.5527C18.6241 12.6059 16.7424 13.1174 14.9763 13.9048C14.0918 14.3015 13.5486 14.5895 13.5253 14.5996C13.502 14.6097 13.5253 14.5996 13.5253 14.5819C15.4338 13.1157 17.6356 12.0563 19.9889 11.472L19.7302 11.184H19.7147C17.212 11.3173 14.8119 12.1993 12.8399 13.7103C10.592 18.0524 9.38222 22.8361 9.30162 27.7011C11.0225 30.0628 13.8357 31.4311 16.8024 31.3491C16.8024 31.3491 17.7283 30.2476 18.4499 29.3558C16.7196 28.931 15.1949 27.9305 14.1383 26.5263C14.1564 26.5389 14.4125 26.7082 14.8263 26.9305C14.8541 26.9624 14.8885 26.9883 14.9272 27.0063C14.9599 27.0285 14.9946 27.0479 15.0306 27.0644C15.0715 27.0826 15.1105 27.1046 15.147 27.1301C15.7241 27.4408 16.3231 27.711 16.9394 27.9385C18.1113 28.3918 19.3235 28.7385 20.5605 28.9743C21.6436 29.1738 22.7432 29.2752 23.8453 29.2775C24.8787 29.2774 25.9099 29.1843 26.9258 28.9996C28.1493 28.7897 29.3443 28.4439 30.4873 27.9688C31.4747 27.5979 32.4168 27.1209 33.2962 26.5465ZM28.025 25.4678C26.8997 25.5636 25.8296 24.9749 25.3302 23.9853C24.8308 22.9957 25.0046 21.8081 25.7679 20.9948C26.5311 20.1815 27.7273 19.9092 28.78 20.3091C29.8327 20.7091 30.5261 21.6992 30.5261 22.8025C30.5831 24.212 29.465 25.4022 28.0224 25.4678H28.025ZM19.0552 25.4678C17.64 25.3473 16.554 24.19 16.554 22.8025C16.554 21.415 17.64 20.2577 19.0552 20.1373C19.7071 20.1392 20.3304 20.3989 20.7829 20.8573C21.2964 21.3779 21.5758 22.0773 21.5589 22.8C21.6187 24.2119 20.4979 25.405 19.0526 25.4678H19.0552Z" fill="white"/>
</svg>
