<svg viewBox="0 0 48 48" xmlns="http://www.w3.org/2000/svg">
    <path fill-rule="evenodd" clip-rule="evenodd" d="M43.804 2.06408C43.262 2.17936 42.8065 2.35145 40.4994 3.31299C38.1298 4.30059 32.6487 6.59955 32.0878 6.84111C31.873 6.93363 30.5887 7.47433 29.2339 8.04264C26.8047 9.06159 11.173 15.635 6.67275 17.53C5.40049 18.0657 3.954 18.6725 3.45831 18.8784C2.00797 19.4809 1.44451 19.8113 0.887126 20.3863C-0.259916 21.5693 -0.298309 23.3239 0.793397 24.6657C1.10949 25.0541 1.84028 25.6162 2.35807 25.8692C2.56662 25.9711 4.79215 26.745 7.30362 27.5891C9.81508 28.4331 11.886 29.1426 11.9057 29.1657C11.9253 29.1888 12.3544 30.5587 12.8592 32.2099C15.3974 40.5128 15.5442 40.957 15.9957 41.7071C16.2774 42.1747 16.7471 42.6452 17.1224 42.8351C17.6028 43.0785 18.2943 43.1917 18.8104 43.1118C19.3292 43.0313 19.8061 42.8559 20.1157 42.6318C20.2463 42.5373 20.8643 41.9936 21.4889 41.4236C24.3548 38.8086 25.5602 37.7344 25.6226 37.7398C25.6597 37.7431 26.8119 38.606 28.183 39.6573C35.2317 45.0622 34.6199 44.6292 35.5799 44.8928C36.1106 45.0385 37.4299 45.035 37.9759 44.8865C38.892 44.6374 39.6781 44.1098 40.2386 43.368C40.8693 42.5332 40.8278 42.6834 41.7914 37.7596C42.2725 35.3017 42.7589 32.8178 42.8724 32.2399C43.094 31.1103 44.5001 23.9191 44.8857 21.9424C45.0146 21.2819 45.5958 18.3097 46.1774 15.3375C46.7589 12.3654 47.3943 9.11755 47.5894 8.12016C47.7845 7.12277 47.9616 6.10953 47.9831 5.86852C48.1707 3.75605 46.7789 2.08449 44.7653 2.00392C44.4187 1.99005 44.0411 2.0137 43.804 2.06408ZM44.25 5.92574C44.2372 5.9835 44.1735 6.31446 44.1086 6.66121C44.0437 7.00797 43.6229 9.16954 43.1734 11.4647C42.0649 17.1261 38.6318 34.6632 38.0073 37.854C37.7295 39.274 37.4834 40.5439 37.4606 40.676C37.407 40.9862 37.2836 41.2269 37.1381 41.3047C36.9624 41.3987 36.6433 41.3788 36.4114 41.2595C36.2508 41.1769 31.9056 37.8769 28.0923 34.9416C25.5116 32.9551 25.4164 32.8876 25.3125 32.9699C25.2566 33.0142 23.8745 34.2664 22.2411 35.7524C19.2198 38.5013 18.8095 38.8697 18.8095 38.8338C18.8095 38.805 20.1206 30.4478 20.1604 30.2232C20.1865 30.0753 20.4995 29.7534 21.7075 28.632C22.5403 27.8588 23.6561 26.8209 24.1868 26.3256C24.7176 25.8302 26.7058 23.9806 28.6049 22.2151C30.504 20.4498 32.22 18.853 32.4183 18.6667C32.6165 18.4804 33.4141 17.738 34.1907 17.017C36.9407 14.4637 37.231 14.1922 37.816 13.627C38.4738 12.9914 38.5802 12.8354 38.5332 12.5744C38.4617 12.177 38.172 12.0873 37.6311 12.2952C37.4737 12.3556 36.7232 12.792 35.9631 13.2648C35.2031 13.7377 32.932 15.1438 30.9162 16.3896C28.9004 17.6353 26.7509 18.9645 26.1396 19.3433C25.0629 20.0106 20.8983 22.5854 16.8798 25.0684C15.6347 25.8377 14.8898 26.2637 14.837 26.2366C14.7913 26.2132 12.3881 25.4021 9.49664 24.4343C6.60515 23.4665 4.21812 22.6562 4.1921 22.6335C4.16609 22.6109 6.53185 21.5891 9.44936 20.3629C14.4019 18.2814 18.5619 16.532 27.852 12.6242C35.4495 9.42827 36.5723 8.95693 40.349 7.37868C42.4637 6.49483 44.2119 5.78277 44.2337 5.79622C44.2555 5.80967 44.2628 5.86798 44.25 5.92574Z" fill="white"/>
</svg>
